<?xml version="1.0" encoding="utf-8"?>
<!-- Generator: Adobe Illustrator 21.0.0, SVG Export Plug-In . SVG Version: 6.00 Build 0)  -->
<svg version="1.1" id="Layer_1" xmlns="http://www.w3.org/2000/svg" xmlns:xlink="http://www.w3.org/1999/xlink" x="0px" y="0px"
	 viewBox="0 0 701.2 419.9" style="enable-background:new 0 0 701.2 419.9;" xml:space="preserve">
<style type="text/css">
	.st0{fill:#E44F26;}
	.st1{fill:#F1662A;}
	.st2{fill:#EBEBEB;}
	.st3{fill:#010101;}
	.st4{fill:#FFFFFF;}
	.st5{fill:#131313;}
	.st6{fill:#1572B6;}
	.st7{fill:#33A9DC;}
</style>
<g>
	<polygon class="st0" points="27.1,386.1 0,82.5 297.5,82.5 270.4,386.1 148.5,419.9 	"/>
	<polygon class="st1" points="148.7,394 247.2,366.8 270.3,107.3 148.7,107.3 	"/>
	<polygon class="st2" points="148.7,219.9 99.4,219.9 96,181.8 148.7,181.8 148.7,144.6 148.6,144.6 55.4,144.6 56.2,154.6 
		65.4,257.2 148.7,257.2 	"/>
	<polygon class="st2" points="148.7,316.7 148.6,316.7 107.1,305.5 104.4,275.8 84.3,275.8 67.1,275.8 72.3,334.3 148.6,355.4 
		148.7,355.4 	"/>
	<path class="st3" d="M27.7,0h18.9v18.7h17.3V0h18.9v56.6H63.9v-19H46.6v19H27.7V0L27.7,0z"/>
	<path class="st3" d="M107.7,18.8H91.1V0h52.3v18.8h-16.7v37.8h-18.9L107.7,18.8L107.7,18.8z"/>
	<path class="st3" d="M151.6,0h19.7l12.1,19.9L195.6,0h19.7v56.6h-18.8V28.6l-13,20.1h-0.3l-13-20.1v28.1h-18.5L151.6,0L151.6,0z"/>
	<path class="st3" d="M224.8,0h18.9v37.9h26.6v18.7h-45.5L224.8,0L224.8,0z"/>
	<polygon class="st4" points="148.6,219.9 148.6,257.2 194.4,257.2 190.1,305.5 148.6,316.7 148.6,355.4 224.9,334.3 225.5,328 
		234.2,229.9 235.2,219.9 225.1,219.9 	"/>
	<polygon class="st4" points="148.6,144.6 148.6,167.7 148.6,181.7 148.6,181.8 238.4,181.8 238.4,181.8 238.5,181.8 239.3,173.4 
		241,154.6 241.9,144.6 	"/>
</g>
<g>
	<path class="st5" d="M636.9,15.5h-24.7l25.7,27.9v13.3H585V41.1h25.7L585,13.3V0h51.9V15.5L636.9,15.5z M574.5,15.5h-24.7
		l25.7,27.9v13.3h-52.9V41.1h25.7l-25.7-27.9V0h51.9L574.5,15.5L574.5,15.5z M512.7,16.2h-26.6v24.3h26.6v16.2h-45.6V0h45.6V16.2z"
		/>
</g>
<polygon class="st6" points="430.8,386.2 403.8,82.5 701.2,82.5 674.1,386.1 552.3,419.9 "/>
<polygon class="st7" points="552.5,394.1 650.9,366.8 674.1,107.4 552.5,107.4 "/>
<g>
	<polygon class="st4" points="552.5,217.4 601.8,217.4 605.2,179.2 552.5,179.2 552.5,142 552.6,142 645.9,142 645,152 635.8,254.6 
		552.5,254.6 	"/>
	<polygon class="st2" points="552.7,314.1 552.5,314.1 511.1,302.9 508.4,273.2 488.3,273.2 471,273.2 476.3,331.7 552.5,352.9 
		552.7,352.8 	"/>
	<polygon class="st4" points="598.6,253 594.1,302.9 552.6,314.1 552.6,352.8 628.9,331.7 629.5,325.4 636,253 	"/>
	<polygon class="st2" points="552.6,142 552.6,165.1 552.6,179.1 552.6,179.2 462.8,179.2 462.8,179.2 462.7,179.2 461.9,170.9 
		460.2,152 459.3,142 	"/>
	<polygon class="st2" points="552.5,217.4 552.5,240.5 552.5,254.5 552.5,254.6 511.7,254.6 511.7,254.6 511.5,254.6 510.8,246.2 
		509.1,227.4 508.2,217.4 	"/>
</g>
</svg>
